<?xml version="1.0" encoding="utf-8"?>
<!-- Generator: Adobe Illustrator 26.2.1, SVG Export Plug-In . SVG Version: 6.00 Build 0)  -->
<svg version="1.1" id="Layer_1" xmlns="http://www.w3.org/2000/svg" xmlns:xlink="http://www.w3.org/1999/xlink" x="0px" y="0px"
	 viewBox="0 0 440.1 315.5" style="enable-background:new 0 0 440.1 315.5;" xml:space="preserve">
<style type="text/css">
	.st0{fill:#145DDF;}
</style>
<g>
	<g>
		<path class="st0" d="M44.9,257v-59.8h20.6c3.9,0,7.3,0.4,10,1.1c2.8,0.7,5,1.8,6.8,3.2c1.8,1.4,3.1,3.1,3.9,5
			c0.8,2,1.2,4.2,1.2,6.6c0,1.4-0.2,2.8-0.6,4c-0.4,1.3-1.1,2.5-1.9,3.6c-0.9,1.1-2,2.1-3.3,3c-1.3,0.9-2.9,1.7-4.8,2.3
			c8.2,1.8,12.3,6.3,12.3,13.3c0,2.5-0.5,4.9-1.4,7c-1,2.2-2.4,4-4.2,5.6c-1.8,1.6-4.1,2.8-6.8,3.7c-2.7,0.9-5.8,1.3-9.3,1.3H44.9z
			 M56,223.1h8.9c3.8,0,6.6-0.7,8.6-2.1c2-1.4,2.9-3.6,2.9-6.6c0-3.1-0.9-5.3-2.6-6.7c-1.8-1.3-4.5-2-8.3-2H56V223.1z M56,230.8
			v17.5h11.3c2.1,0,3.8-0.2,5.2-0.7c1.4-0.5,2.5-1.2,3.4-2c0.8-0.8,1.4-1.8,1.8-2.9c0.4-1.1,0.6-2.3,0.6-3.5c0-1.3-0.2-2.5-0.6-3.5
			c-0.4-1-1.1-1.9-1.9-2.6c-0.9-0.7-2-1.3-3.4-1.7c-1.4-0.4-3.1-0.6-5-0.6H56z"/>
		<path class="st0" d="M107.7,197.2V257H97.5v-59.8H107.7z"/>
		<path class="st0" d="M127.9,214.6v27c0,2.6,0.6,4.6,1.8,6c1.2,1.4,3,2.1,5.4,2.1c1.8,0,3.4-0.4,5-1.2c1.5-0.8,3-1.9,4.4-3.2v-30.7
			h10.2V257h-6.2c-1.3,0-2.2-0.6-2.6-1.9l-0.7-3.4c-0.9,0.9-1.8,1.7-2.7,2.4c-0.9,0.7-1.9,1.4-3,1.9c-1.1,0.5-2.2,0.9-3.4,1.2
			s-2.5,0.4-4,0.4c-2.3,0-4.4-0.4-6.1-1.2c-1.8-0.8-3.3-1.9-4.5-3.3c-1.2-1.4-2.1-3.1-2.8-5.1c-0.6-2-0.9-4.1-0.9-6.5v-27H127.9z"/>
		<path class="st0" d="M182.1,213.9c2.7,0,5.1,0.4,7.4,1.3s4.2,2.1,5.8,3.7c1.6,1.6,2.9,3.7,3.8,6c0.9,2.4,1.4,5.1,1.4,8.2
			c0,0.8,0,1.4-0.1,1.9c-0.1,0.5-0.2,0.9-0.4,1.2c-0.2,0.3-0.4,0.5-0.7,0.6c-0.3,0.1-0.7,0.2-1.2,0.2h-26.2c0.3,4.4,1.5,7.6,3.5,9.6
			c2,2,4.7,3.1,8.1,3.1c1.7,0,3.1-0.2,4.3-0.6c1.2-0.4,2.2-0.8,3.1-1.3c0.9-0.5,1.7-0.9,2.4-1.3s1.3-0.6,2-0.6
			c0.4,0,0.8,0.1,1.1,0.2c0.3,0.2,0.6,0.4,0.8,0.7l3,3.7c-1.1,1.3-2.4,2.4-3.8,3.3c-1.4,0.9-2.9,1.6-4.4,2.2
			c-1.5,0.5-3.1,0.9-4.7,1.1c-1.6,0.2-3.1,0.3-4.6,0.3c-3,0-5.7-0.5-8.2-1.5c-2.5-1-4.7-2.4-6.6-4.3c-1.9-1.9-3.4-4.3-4.4-7.1
			s-1.6-6.1-1.6-9.8c0-2.9,0.5-5.6,1.4-8.2c0.9-2.6,2.3-4.8,4-6.7c1.7-1.9,3.9-3.4,6.4-4.5S178.9,213.9,182.1,213.9z M182.3,221.2
			c-3,0-5.3,0.8-7,2.5c-1.7,1.7-2.8,4.1-3.2,7.2h19.2c0-1.3-0.2-2.6-0.5-3.7c-0.4-1.2-0.9-2.2-1.7-3.1c-0.7-0.9-1.7-1.6-2.8-2.1
			C185.1,221.5,183.8,221.2,182.3,221.2z"/>
		<path class="st0" d="M239.3,222.3h2.6c1,0,1.9-0.1,2.6-0.4c0.7-0.3,1.3-0.8,1.8-1.4l16.5-20.9c0.7-0.9,1.4-1.5,2.2-1.8
			c0.8-0.3,1.7-0.5,2.9-0.5h9.6l-20.2,24.9c-0.6,0.8-1.2,1.4-1.8,1.9c-0.6,0.5-1.2,1-1.9,1.3c0.9,0.3,1.7,0.8,2.5,1.4
			c0.7,0.6,1.4,1.4,2.1,2.3l20.8,28h-9.9c-1.3,0-2.3-0.2-3-0.6c-0.6-0.4-1.2-0.9-1.6-1.6l-16.9-22.1c-0.6-0.7-1.2-1.2-1.9-1.6
			c-0.7-0.3-1.7-0.5-2.9-0.5h-3.5V257h-11.1v-59.9h11.1V222.3z"/>
		<path class="st0" d="M298,213.7c2.7,0,5.1,0.4,7.4,1.3c2.2,0.9,4.2,2.1,5.8,3.7c1.6,1.6,2.9,3.7,3.8,6c0.9,2.4,1.4,5.1,1.4,8.2
			c0,0.8,0,1.4-0.1,1.9c-0.1,0.5-0.2,0.9-0.4,1.2c-0.2,0.3-0.4,0.5-0.7,0.6c-0.3,0.1-0.7,0.2-1.2,0.2h-26.2c0.3,4.4,1.5,7.6,3.5,9.6
			c2,2,4.7,3.1,8.1,3.1c1.7,0,3.1-0.2,4.3-0.6c1.2-0.4,2.2-0.8,3.1-1.3c0.9-0.5,1.7-0.9,2.4-1.3c0.7-0.4,1.3-0.6,2-0.6
			c0.4,0,0.8,0.1,1.1,0.2c0.3,0.2,0.6,0.4,0.8,0.7l3,3.7c-1.1,1.3-2.4,2.4-3.8,3.3c-1.4,0.9-2.9,1.6-4.4,2.2
			c-1.5,0.5-3.1,0.9-4.7,1.1c-1.6,0.2-3.1,0.3-4.6,0.3c-3,0-5.7-0.5-8.2-1.5c-2.5-1-4.7-2.4-6.6-4.3c-1.9-1.9-3.4-4.3-4.4-7.1
			s-1.6-6.1-1.6-9.8c0-2.9,0.5-5.6,1.4-8.2c0.9-2.6,2.3-4.8,4-6.7c1.7-1.9,3.9-3.4,6.4-4.5C292,214.2,294.9,213.7,298,213.7z
			 M298.2,221c-3,0-5.3,0.8-7,2.5c-1.7,1.7-2.8,4.1-3.2,7.2h19.2c0-1.3-0.2-2.6-0.5-3.7s-0.9-2.2-1.7-3.1c-0.7-0.9-1.7-1.6-2.8-2.1
			C301.1,221.3,299.8,221,298.2,221z"/>
		<path class="st0" d="M338.7,268.5c-0.3,0.7-0.7,1.3-1.2,1.6c-0.5,0.4-1.2,0.6-2.2,0.6h-7.6l7.9-17l-17.2-39.3h8.9
			c0.8,0,1.5,0.2,1.9,0.6c0.4,0.4,0.8,0.8,1,1.3l9.1,22c0.3,0.7,0.6,1.5,0.8,2.2s0.4,1.5,0.6,2.3c0.2-0.8,0.5-1.6,0.7-2.3
			c0.3-0.7,0.5-1.5,0.8-2.3l8.5-22c0.2-0.5,0.6-1,1.1-1.4c0.5-0.4,1.1-0.5,1.7-0.5h8.2L338.7,268.5z"/>
		<path class="st0" d="M392.5,222.6c-0.3,0.4-0.6,0.8-0.9,0.9c-0.3,0.2-0.7,0.3-1.2,0.3c-0.5,0-1-0.1-1.6-0.4
			c-0.6-0.3-1.2-0.6-2-0.9c-0.7-0.3-1.6-0.7-2.5-0.9c-1-0.3-2.1-0.4-3.4-0.4c-2,0-3.6,0.4-4.8,1.3c-1.2,0.9-1.7,2-1.7,3.4
			c0,0.9,0.3,1.7,0.9,2.3c0.6,0.6,1.4,1.2,2.4,1.6c1,0.5,2.1,0.9,3.3,1.3c1.2,0.4,2.5,0.8,3.8,1.2c1.3,0.4,2.6,0.9,3.8,1.5
			c1.2,0.6,2.4,1.3,3.3,2.2c1,0.9,1.8,1.9,2.4,3.1c0.6,1.2,0.9,2.7,0.9,4.4c0,2-0.4,3.9-1.1,5.6c-0.7,1.7-1.8,3.2-3.3,4.5
			c-1.4,1.3-3.2,2.2-5.3,2.9c-2.1,0.7-4.5,1.1-7.3,1.1c-1.5,0-2.9-0.1-4.3-0.4c-1.4-0.3-2.7-0.6-4-1.1c-1.3-0.5-2.5-1-3.6-1.7
			c-1.1-0.6-2-1.3-2.9-2.1l2.4-3.9c0.3-0.5,0.7-0.8,1.1-1.1c0.4-0.2,0.9-0.4,1.6-0.4c0.6,0,1.2,0.2,1.8,0.5c0.6,0.4,1.2,0.7,2,1.2
			c0.7,0.4,1.6,0.8,2.6,1.2c1,0.4,2.3,0.5,3.8,0.5c1.2,0,2.3-0.1,3.1-0.4c0.9-0.3,1.6-0.7,2.2-1.1c0.6-0.5,1-1,1.2-1.6
			c0.3-0.6,0.4-1.3,0.4-1.9c0-1-0.3-1.8-0.9-2.4c-0.6-0.6-1.4-1.2-2.4-1.7c-1-0.5-2.1-0.9-3.4-1.3c-1.3-0.4-2.5-0.8-3.8-1.2
			c-1.3-0.4-2.6-1-3.8-1.6c-1.3-0.6-2.4-1.3-3.4-2.3c-1-0.9-1.8-2-2.4-3.4c-0.6-1.3-0.9-2.9-0.9-4.8c0-1.7,0.3-3.4,1-5
			c0.7-1.6,1.7-2.9,3-4.1c1.3-1.2,3-2.1,5-2.8c2-0.7,4.3-1.1,6.9-1.1c2.9,0,5.6,0.5,8,1.4c2.4,1,4.4,2.2,6,3.8L392.5,222.6z"/>
	</g>
	<g>
		<path class="st0" d="M255.7,152.7c-18.7-0.7-35.1,4.7-47.2,10.7C225.7,166.8,242.6,162.4,255.7,152.7z M266,66.3
			c-3.4-4-7.3-7.6-11.6-10.7c-2.5,1.1-4.9,2.3-7.3,3.6c-0.6,0.3-0.6,0.3-0.6,0.3C224,72.1,205,93.6,191.1,122.5
			c-4.7,9.8-8.2,19.2-10.7,27c3.2,2.9,6.8,5.4,10.7,7.5c13.2-7.1,46.1-22.3,76.3-15.7c1.8-2.3,3.3-4.7,4.8-7.2
			c-17.3-4.5-37.8-2.9-59.8,4.7c-9.5,3.3-17.6,7.1-23.2,10c1.2-3.5,2.5-7.2,4.1-11.1c1.1-2.8,3.3-5,6.1-6.2
			c13.1-5.4,47.1-17.2,77.5-8.3c0.5-1.7,1-3.3,1.4-5.1c0.2-0.9,0.4-1.9,0.6-2.8c-20.6-5.9-42.2-3.2-57.3,0.4
			c-7.6,1.8-15.3,4.3-21.3,6.7c1.7-3.3,3.5-6.6,5.4-9.9c1.8-3,4.6-5.3,7.9-6.3c11.4-3.5,37-9.1,66.3-2.1c0-2.9-0.3-5.7-0.7-8.5
			c-26.6-5.9-49.8-2.1-63.1,1.4c2.1-2.8,4.4-5.5,6.8-8.2c2.5-2.8,5.9-4.7,9.6-5.3c9.1-1.5,26.3-3.2,44.2,1.8
			c-1.1-3.2-2.5-6.4-4.1-9.4c-13-2.7-25.2-2.4-34.1-1.5c3-2.6,6.2-5,9.8-6.8c2.7-1.3,5.6-1.9,8.6-1.9
			C259.1,65.9,261.9,66.1,266,66.3z"/>
		<g>
			<path class="st0" d="M160.2,105.7c11.6,15.9,14.8,31.2,15.6,39.2c-0.1,0-0.1,0-0.1,0C166.2,134.3,160.5,120.4,160.2,105.7z"/>
			<path class="st0" d="M239.8,55.7c2.7-1.4,5.4-2.6,8.3-3.7c0-0.1,0-0.1,0-0.2c-2.6-1.4-5.4-2.6-8.3-3.6
				C240,51.6,239.9,54.1,239.8,55.7z"/>
			<path class="st0" d="M224.1,66.1c1.5-1.2,3.1-2.4,4.7-3.6c1.7-1.3,2.6-3.4,2.1-5.5c-0.7-3.4-1.8-7.3-3.3-11.6c-3-0.4-6-0.5-9-0.5
				C222.5,54.3,223.7,62.5,224.1,66.1z"/>
			<path class="st0" d="M209.1,80.7L209.1,80.7c1.4-1.6,2.9-3.2,4.5-4.9c1.4-1.5,2-3.5,1.4-5.5c-1.9-6-5.3-14.3-11.3-23.2
				c-2.7,0.8-5.4,1.8-8,2.9C207.2,66.2,209.1,80.5,209.1,80.7z"/>
			<path class="st0" d="M176.6,63.6c13.6,14.4,19.3,30.1,20.5,34c0.8-1.3,1.5-2.5,2.4-3.8c0.1-0.2,0.6-0.9,1.4-2.1
				c1.1-1.6,1.3-3.6,0.5-5.4c-3.4-7.6-9.4-18.1-18.8-28.2C180.5,59.8,178.5,61.6,176.6,63.6z"/>
			<path class="st0" d="M163.6,85.1c14.5,16.5,20.1,33,21.1,36.4c1.1-2.6,2.4-5.2,3.7-7.9c0.7-1.5,0.8-3.3,0.1-4.8
				c-3.8-8.4-10.4-20.3-21.4-31.9C165.7,79.5,164.5,82.2,163.6,85.1z"/>
		</g>
	</g>
</g>
</svg>
