<?xml version="1.0" encoding="utf-8"?>
<!-- Generator: Adobe Illustrator 26.2.1, SVG Export Plug-In . SVG Version: 6.00 Build 0)  -->
<svg version="1.1" id="Layer_1" xmlns="http://www.w3.org/2000/svg" xmlns:xlink="http://www.w3.org/1999/xlink" x="0px" y="0px"
	 viewBox="0 0 802.8 285.2" style="enable-background:new 0 0 802.8 285.2;" xml:space="preserve">
<style type="text/css">
	.st0{fill:#FFFFFF;}
</style>
<g>
	<g>
		<path class="st0" d="M264.7,183.4v-81.5h28.1c5.3,0,9.9,0.5,13.7,1.5c3.8,1,6.9,2.5,9.3,4.3c2.4,1.9,4.2,4.2,5.3,6.8
			c1.1,2.7,1.7,5.7,1.7,9c0,1.9-0.3,3.7-0.8,5.5c-0.6,1.7-1.4,3.4-2.6,4.9s-2.7,2.9-4.5,4.1c-1.8,1.2-4,2.3-6.5,3.2
			c11.2,2.5,16.8,8.6,16.8,18.1c0,3.5-0.7,6.6-2,9.6c-1.3,2.9-3.2,5.5-5.7,7.6c-2.5,2.1-5.6,3.8-9.3,5c-3.7,1.2-7.9,1.8-12.6,1.8
			H264.7z M279.8,137.2H292c5.1,0,9.1-0.9,11.7-2.8c2.7-1.9,4-4.9,4-9c0-4.2-1.2-7.3-3.6-9.1c-2.4-1.8-6.2-2.7-11.3-2.7h-13V137.2z
			 M279.8,147.6v23.9h15.4c2.8,0,5.2-0.3,7.1-1c1.9-0.7,3.4-1.6,4.6-2.7s2-2.4,2.5-3.9c0.5-1.5,0.8-3.1,0.8-4.8
			c0-1.8-0.3-3.4-0.8-4.8c-0.6-1.4-1.4-2.6-2.6-3.6c-1.2-1-2.7-1.8-4.6-2.3c-1.9-0.5-4.2-0.8-6.8-0.8H279.8z"/>
		<path class="st0" d="M350.2,101.9v81.5h-13.9v-81.5H350.2z"/>
		<path class="st0" d="M377.7,125.5v36.7c0,3.5,0.8,6.3,2.4,8.2c1.6,1.9,4.1,2.9,7.4,2.9c2.4,0,4.7-0.5,6.8-1.6
			c2.1-1.1,4.1-2.5,6-4.4v-41.8h13.9v57.8h-8.5c-1.8,0-3-0.8-3.6-2.5l-1-4.6c-1.2,1.2-2.4,2.3-3.7,3.3c-1.3,1-2.6,1.8-4.1,2.5
			c-1.4,0.7-3,1.2-4.7,1.6c-1.7,0.4-3.5,0.6-5.4,0.6c-3.2,0-5.9-0.5-8.4-1.6s-4.5-2.6-6.1-4.5c-1.7-2-2.9-4.3-3.7-7
			c-0.8-2.7-1.3-5.6-1.3-8.9v-36.7H377.7z"/>
		<path class="st0" d="M451.5,124.6c3.6,0,7,0.6,10.1,1.7c3.1,1.2,5.7,2.9,7.9,5.1c2.2,2.2,3.9,5,5.2,8.2c1.2,3.3,1.9,7,1.9,11.1
			c0,1.1,0,1.9-0.1,2.6c-0.1,0.7-0.3,1.2-0.5,1.6c-0.2,0.4-0.6,0.7-1,0.8c-0.4,0.2-0.9,0.3-1.6,0.3h-35.7c0.4,5.9,2,10.3,4.8,13.1
			c2.8,2.8,6.5,4.2,11,4.2c2.3,0,4.2-0.3,5.8-0.8c1.6-0.5,3.1-1.1,4.3-1.7c1.2-0.6,2.3-1.2,3.2-1.7c0.9-0.5,1.8-0.8,2.7-0.8
			c0.6,0,1.1,0.1,1.5,0.3c0.4,0.2,0.8,0.5,1.1,1l4.1,5.1c-1.5,1.8-3.3,3.3-5.2,4.5c-1.9,1.2-3.9,2.2-6,2.9c-2.1,0.7-4.2,1.2-6.4,1.5
			c-2.2,0.3-4.3,0.5-6.3,0.5c-4,0-7.8-0.7-11.2-2c-3.5-1.3-6.5-3.3-9-5.9c-2.6-2.6-4.6-5.8-6-9.7c-1.5-3.9-2.2-8.3-2.2-13.4
			c0-3.9,0.6-7.7,1.9-11.1c1.3-3.5,3.1-6.5,5.5-9.1c2.4-2.6,5.3-4.6,8.7-6.1C443.3,125.4,447.2,124.6,451.5,124.6z M451.8,134.6
			c-4.1,0-7.2,1.1-9.5,3.4c-2.3,2.3-3.8,5.5-4.4,9.7H464c0-1.8-0.2-3.5-0.7-5.1c-0.5-1.6-1.2-3-2.3-4.2c-1-1.2-2.3-2.2-3.8-2.8
			C455.6,135,453.8,134.6,451.8,134.6z"/>
		<path class="st0" d="M529.4,136h3.6c1.4,0,2.6-0.2,3.5-0.6c0.9-0.4,1.7-1,2.4-1.9l22.5-28.5c0.9-1.2,1.9-2,3-2.5s2.3-0.7,3.9-0.7
			h13.1l-27.4,33.9c-0.9,1.1-1.7,1.9-2.5,2.6c-0.8,0.7-1.6,1.3-2.5,1.7c1.2,0.5,2.4,1.1,3.4,1.9c1,0.8,2,1.9,2.9,3.2l28.3,38.1H570
			c-1.8,0-3.1-0.3-4-0.8c-0.9-0.5-1.6-1.2-2.2-2.2l-23-30.1c-0.8-1-1.6-1.7-2.5-2.1c-0.9-0.4-2.3-0.6-4-0.6h-4.8v35.8h-15.2v-81.5
			h15.2V136z"/>
		<path class="st0" d="M609.4,124.3c3.6,0,7,0.6,10.1,1.7c3.1,1.2,5.7,2.9,7.9,5.1c2.2,2.2,3.9,5,5.2,8.2c1.2,3.3,1.9,7,1.9,11.1
			c0,1.1,0,1.9-0.1,2.6c-0.1,0.7-0.3,1.2-0.5,1.6c-0.2,0.4-0.6,0.7-1,0.8c-0.4,0.2-0.9,0.3-1.6,0.3h-35.7c0.4,5.9,2,10.3,4.8,13.1
			c2.8,2.8,6.5,4.2,11,4.2c2.3,0,4.2-0.3,5.8-0.8c1.6-0.5,3.1-1.1,4.3-1.7c1.2-0.6,2.3-1.2,3.2-1.7s1.8-0.8,2.7-0.8
			c0.6,0,1.1,0.1,1.5,0.3c0.4,0.2,0.8,0.5,1.1,1l4.1,5.1c-1.5,1.8-3.3,3.3-5.2,4.5c-1.9,1.2-3.9,2.2-6,2.9c-2.1,0.7-4.2,1.2-6.4,1.5
			c-2.2,0.3-4.3,0.5-6.3,0.5c-4,0-7.8-0.7-11.2-2c-3.5-1.3-6.5-3.3-9-5.9c-2.6-2.6-4.6-5.8-6-9.7s-2.2-8.3-2.2-13.4
			c0-3.9,0.6-7.7,1.9-11.1c1.3-3.5,3.1-6.5,5.5-9.1c2.4-2.6,5.3-4.6,8.7-6.1C601.2,125.1,605.1,124.3,609.4,124.3z M609.7,134.3
			c-4.1,0-7.2,1.1-9.5,3.4c-2.3,2.3-3.8,5.5-4.4,9.7h26.1c0-1.8-0.2-3.5-0.7-5.1c-0.5-1.6-1.2-3-2.3-4.2c-1-1.2-2.3-2.2-3.8-2.8
			C613.6,134.6,611.7,134.3,609.7,134.3z"/>
		<path class="st0" d="M664.7,198.9c-0.4,1-0.9,1.7-1.6,2.2c-0.7,0.5-1.7,0.8-3,0.8h-10.4l10.8-23.2l-23.4-53.5h12.2
			c1.1,0,2,0.3,2.6,0.8c0.6,0.5,1.1,1.1,1.4,1.8l12.3,30c0.4,1,0.8,2,1.1,3s0.6,2.1,0.8,3.2c0.3-1.1,0.6-2.1,1-3.2
			c0.4-1,0.7-2,1.2-3.1l11.6-29.9c0.3-0.7,0.8-1.4,1.5-1.9c0.7-0.5,1.5-0.7,2.3-0.7h11.2L664.7,198.9z"/>
		<path class="st0" d="M738,136.5c-0.4,0.6-0.8,1-1.2,1.3c-0.4,0.2-0.9,0.4-1.6,0.4c-0.7,0-1.4-0.2-2.2-0.6
			c-0.8-0.4-1.7-0.8-2.7-1.3c-1-0.5-2.2-0.9-3.5-1.3c-1.3-0.4-2.8-0.6-4.6-0.6c-2.7,0-4.9,0.6-6.5,1.7c-1.6,1.2-2.4,2.7-2.4,4.6
			c0,1.2,0.4,2.3,1.2,3.1c0.8,0.8,1.9,1.6,3.2,2.2c1.3,0.6,2.8,1.2,4.5,1.7c1.7,0.5,3.4,1.1,5.2,1.7c1.8,0.6,3.5,1.3,5.2,2.1
			c1.7,0.8,3.2,1.7,4.5,2.9c1.3,1.2,2.4,2.6,3.2,4.3s1.2,3.6,1.2,6c0,2.8-0.5,5.3-1.5,7.7c-1,2.3-2.5,4.4-4.5,6.1
			c-2,1.7-4.4,3-7.2,4c-2.9,1-6.2,1.4-9.9,1.4c-2,0-3.9-0.2-5.8-0.5c-1.9-0.4-3.7-0.9-5.5-1.5c-1.7-0.6-3.4-1.4-4.8-2.3
			c-1.5-0.9-2.8-1.8-3.9-2.8l3.2-5.3c0.4-0.6,0.9-1.1,1.5-1.5c0.6-0.3,1.3-0.5,2.1-0.5c0.9,0,1.7,0.2,2.5,0.7c0.8,0.5,1.7,1,2.7,1.6
			c1,0.6,2.2,1.1,3.6,1.6c1.4,0.5,3.1,0.7,5.2,0.7c1.7,0,3.1-0.2,4.3-0.6c1.2-0.4,2.2-0.9,2.9-1.5c0.8-0.6,1.3-1.4,1.7-2.2
			c0.4-0.8,0.5-1.7,0.5-2.6c0-1.4-0.4-2.5-1.2-3.3c-0.8-0.9-1.9-1.6-3.2-2.3c-1.3-0.6-2.9-1.2-4.6-1.7c-1.7-0.5-3.5-1.1-5.2-1.7
			c-1.8-0.6-3.5-1.3-5.2-2.1c-1.7-0.8-3.2-1.8-4.6-3.1c-1.3-1.2-2.4-2.8-3.2-4.6c-0.8-1.8-1.2-4-1.2-6.5c0-2.4,0.5-4.6,1.4-6.8
			c0.9-2.1,2.3-4,4.1-5.6c1.8-1.6,4.1-2.9,6.8-3.8c2.7-1,5.9-1.4,9.4-1.4c4,0,7.6,0.7,10.9,2c3.3,1.3,6,3,8.2,5.2L738,136.5z"/>
	</g>
	<g>
		<path class="st0" d="M191.1,208c-25.5-0.9-47.8,6.4-64.3,14.5C150.1,227.1,173.2,221.2,191.1,208z M205,90.4
			c-4.6-5.5-9.9-10.4-15.8-14.5c-3.3,1.5-6.6,3.1-9.9,4.9c-0.8,0.4-0.8,0.4-0.8,0.4c-30.7,17-56.6,46.2-75.4,85.6
			c-6.4,13.4-11.2,26.1-14.6,36.8c4.4,3.9,9.3,7.3,14.5,10.3c18-9.7,62.7-30.3,103.9-21.4c2.4-3.1,4.6-6.3,6.5-9.8
			c-23.5-6.1-51.4-4-81.4,6.4c-13,4.5-23.9,9.6-31.6,13.6c1.6-4.7,3.5-9.8,5.6-15.1c1.5-3.8,4.5-6.8,8.3-8.4
			c17.8-7.4,64.1-23.5,105.5-11.4c0.7-2.3,1.4-4.5,1.9-6.9c0.3-1.3,0.5-2.5,0.8-3.8c-28-8.1-57.4-4.4-78,0.6
			c-10.3,2.5-20.8,5.9-29.1,9.1c2.3-4.5,4.7-9,7.4-13.5c2.4-4.1,6.2-7.2,10.8-8.5c15.6-4.7,50.4-12.4,90.3-2.8
			c0-3.9-0.3-7.8-0.9-11.6c-36.3-8-67.8-2.9-86,1.9c2.9-3.8,6-7.5,9.3-11.2c3.4-3.8,8.1-6.3,13.1-7.2c12.4-2.1,35.7-4.3,60.1,2.5
			c-1.5-4.4-3.4-8.7-5.6-12.8c-17.7-3.7-34.3-3.3-46.5-2c4.1-3.5,8.4-6.8,13.4-9.2c3.6-1.8,7.7-2.6,11.7-2.5
			C195.6,89.8,199.5,90,205,90.4z"/>
		<g>
			<path class="st0" d="M61,143.9c15.8,21.6,20.1,42.5,21.3,53.3c-0.1,0-0.1,0-0.1,0.1C69.1,182.9,61.4,164,61,143.9z"/>
			<path class="st0" d="M169.3,75.9c3.6-1.9,7.4-3.6,11.3-5c0-0.1,0-0.1,0-0.2c-3.6-1.9-7.4-3.6-11.3-4.9
				C169.7,70.2,169.5,73.7,169.3,75.9z"/>
			<path class="st0" d="M148,90c2-1.7,4.2-3.3,6.4-4.9c2.4-1.7,3.5-4.7,2.9-7.5c-1-4.6-2.4-10-4.5-15.8c-4.1-0.5-8.2-0.7-12.3-0.6
				C145.8,73.9,147.5,85.1,148,90z"/>
			<path class="st0" d="M127.6,110l0.1,0c1.8-2.1,3.8-4.4,6-6.7c1.9-2,2.7-4.8,1.8-7.5c-2.5-8.2-7.2-19.5-15.4-31.5
				c-3.7,1.1-7.4,2.4-10.9,4C125,90.1,127.5,109.7,127.6,110z"/>
			<path class="st0" d="M83.3,86.6c18.5,19.7,26.3,41,27.9,46.3c1-1.7,2.1-3.5,3.2-5.2c0.1-0.2,0.8-1.3,1.9-2.9
				c1.5-2.2,1.7-4.9,0.6-7.3c-4.7-10.3-12.7-24.7-25.5-38.3C88.6,81.4,85.9,83.9,83.3,86.6z"/>
			<path class="st0" d="M65.5,115.9c19.7,22.5,27.4,44.9,28.8,49.5c1.5-3.5,3.2-7.1,5.1-10.8c1-2,1.1-4.4,0.1-6.5
				c-5.1-11.4-14.2-27.6-29.2-43.4C68.5,108.3,66.9,112,65.5,115.9z"/>
		</g>
	</g>
</g>
</svg>
